<svg xmlns="http://www.w3.org/2000/svg" version="1.1" xmlns:xlink="http://www.w3.org/1999/xlink" xmlns:svgjs="http://svgjs.com/svgjs" width="1440" height="560" preserveAspectRatio="none" viewBox="0 0 1440 560"><g mask="url(&quot;#SvgjsMask1236&quot;)" fill="none"><rect width="1440" height="560" x="0" y="0" fill="url(#SvgjsLinearGradient1237)"></rect><path d="M1440 0L1248.88 0L1440 135.33z" fill="rgba(255, 255, 255, .1)"></path><path d="M1248.88 0L1440 135.33L1440 370.56L821.9200000000001 0z" fill="rgba(255, 255, 255, .075)"></path><path d="M821.9200000000001 0L1440 370.56L1440 444.83L366.49000000000007 0z" fill="rgba(255, 255, 255, .05)"></path><path d="M366.49 0L1440 444.83L1440 506.08L255.17000000000002 0z" fill="rgba(255, 255, 255, .025)"></path><path d="M0 560L702.18 560L0 411.15z" fill="rgba(0, 0, 0, .1)"></path><path d="M0 411.15L702.18 560L1045.46 560L0 212.32999999999998z" fill="rgba(0, 0, 0, .075)"></path><path d="M0 212.33000000000004L1045.46 560L1133.01 560L0 142.20000000000005z" fill="rgba(0, 0, 0, .05)"></path><path d="M0 142.20000000000005L1133.01 560L1341.73 560L0 119.30000000000004z" fill="rgba(0, 0, 0, .025)"></path></g><defs><mask id="SvgjsMask1236"><rect width="1440" height="560" fill="#ffffff"></rect></mask><linearGradient x1="84.72%" y1="-39.29%" x2="15.28%" y2="139.29%" gradientUnits="userSpaceOnUse" id="SvgjsLinearGradient1237"><stop stop-color="#0e2a47" offset="0"></stop><stop stop-color="rgba(71, 53, 69, 1)" offset="1"></stop></linearGradient></defs></svg>